<svg width="32" height="26" viewBox="0 0 32 26" fill="none" xmlns="http://www.w3.org/2000/svg">
<path d="M7 17.5C9.48528 17.5 11.5 15.4853 11.5 13C11.5 10.5147 9.48528 8.5 7 8.5C4.51472 8.5 2.5 10.5147 2.5 13C2.5 15.4853 4.51472 17.5 7 17.5Z" stroke="#A6AFBD" stroke-width="4" stroke-linecap="round" stroke-linejoin="round"/>
<path d="M25 17.5C27.4853 17.5 29.5 15.4853 29.5 13C29.5 10.5147 27.4853 8.5 25 8.5C22.5147 8.5 20.5 10.5147 20.5 13C20.5 15.4853 22.5147 17.5 25 17.5Z" stroke="#A6AFBD" stroke-width="4" stroke-linecap="round" stroke-linejoin="round"/>
<path d="M2.50019 12.9999C2.27866 11.3135 2.73632 9.61869 3.82815 8.08215C4.91998 6.54561 6.60837 5.22027 8.72723 4.23651C10.8461 3.25275 13.3224 2.64446 15.9127 2.47147C18.5029 2.29848 21.1178 2.56676 23.5002 3.2499" stroke="#A6AFBD" stroke-width="4" stroke-linecap="round" stroke-linejoin="round"/>
<path d="M29.5 13C29.7215 14.6864 29.2639 16.3812 28.172 17.9178C27.0802 19.4543 25.3918 20.7796 23.273 21.7634C21.1541 22.7471 18.6777 23.3554 16.0875 23.5284C13.4973 23.7014 10.8824 23.4331 8.5 22.75" stroke="#A6AFBD" stroke-width="4" stroke-linecap="round" stroke-linejoin="round"/>
</svg>
