<svg width="32" height="32" viewBox="0 0 32 32" fill="none" xmlns="http://www.w3.org/2000/svg">
<path d="M17.5 23.5C17.5 25.0913 18.1321 26.6174 19.2574 27.7426C20.3826 28.8679 21.9087 29.5 23.5 29.5C25.0913 29.5 26.6174 28.8679 27.7426 27.7426C28.8679 26.6174 29.5 25.0913 29.5 23.5" stroke="#A6AFBD" stroke-width="4" stroke-linecap="round" stroke-linejoin="round"/>
<path d="M7 26.5C9.48528 26.5 11.5 24.4853 11.5 22C11.5 19.5147 9.48528 17.5 7 17.5C4.51472 17.5 2.5 19.5147 2.5 22C2.5 24.4853 4.51472 26.5 7 26.5Z" stroke="#A6AFBD" stroke-width="4" stroke-linecap="round" stroke-linejoin="round"/>
<path d="M14.5 14.5C17.8137 14.5 20.5 11.8137 20.5 8.5C20.5 5.18629 17.8137 2.5 14.5 2.5C11.1863 2.5 8.5 5.18629 8.5 8.5C8.5 11.8137 11.1863 14.5 14.5 14.5Z" stroke="#A6AFBD" stroke-width="4" stroke-linecap="round" stroke-linejoin="round"/>
<path d="M8.5 8.5C8.5 13 11.5 16 11.5 22" stroke="#A6AFBD" stroke-width="4" stroke-linecap="round" stroke-linejoin="round"/>
<path d="M20.5 8.5C20.5 14.5 17.5 17.5 17.5 23.5" stroke="#A6AFBD" stroke-width="4" stroke-linecap="round" stroke-linejoin="round"/>
</svg>
