<svg width="32" height="31" viewBox="0 0 32 31" fill="none" xmlns="http://www.w3.org/2000/svg">
<path d="M2.5 2.00024C3.29565 2.00024 4.05871 2.31631 4.62132 2.87892C5.18393 3.44153 5.5 4.20459 5.5 5.00024V18.5002" stroke="#A6AFBD" stroke-width="4" stroke-linecap="round" stroke-linejoin="round"/>
<path d="M5.50049 5.00024C5.50049 4.20459 5.81656 3.44153 6.37917 2.87892C6.94178 2.31631 7.70484 2.00024 8.50049 2.00024C9.29614 2.00024 10.0592 2.31631 10.6218 2.87892C11.1844 3.44153 11.5005 4.20459 11.5005 5.00024V18.5002" stroke="#A6AFBD" stroke-width="4" stroke-linecap="round" stroke-linejoin="round"/>
<path d="M11.5 5.00024C11.5 4.20459 11.8161 3.44153 12.3787 2.87892C12.9413 2.31631 13.7044 2.00024 14.5 2.00024C15.2956 2.00024 16.0587 2.31631 16.6213 2.87892C17.1839 3.44153 17.5 4.20459 17.5 5.00024V20.0002C17.5 21.1937 17.9741 22.3383 18.818 23.1822C19.6619 24.0261 20.8065 24.5002 22 24.5002H29.5M29.5 24.5002L25 20.0002M29.5 24.5002L25 29.0002" stroke="#A6AFBD" stroke-width="4" stroke-linecap="round" stroke-linejoin="round"/>
</svg>
