<svg width="1194" height="896" viewBox="0 0 1194 896" fill="none"
  xmlns="http://www.w3.org/2000/svg">
  <mask id="mask0_407_35" style="mask-type:alpha" maskUnits="userSpaceOnUse" x="0" y="0" width="1194" height="896">
    <rect width="1194" height="895.063" fill="url(#paint0_linear_407_35)"/>
  </mask>
  <g mask="url(#mask0_407_35)">
    <path opacity="0.7" d="M621.037 488.614C879.766 596.126 666.49 227.699 -34.0895 45.4526L-240.374 1026.18L39.3336 1121.89C144.661 1109.65 324.818 1001.97 224.203 776.625C107.512 515.273 383.264 389.809 621.037 488.614Z" fill="url(#paint1_linear_407_35)"/>
    <path d="M957.492 667.737C966.871 674.435 986.967 644.964 997.685 665.058C1009.74 707.926 957.492 699.888 1015.1 776.246C1072.71 852.604 1133 1216.98 978.928 1664.41C824.855 2111.84 1869.87 2272.6 1717.14 1517.05C1564.41 761.51 1064.41 538.212 978.928 571.285C897.905 602.634 948.114 661.039 957.492 667.737Z" fill="#FFBD16"/>
    <path d="M857.361 904.678C770.429 513.219 715.595 497.131 937.607 600.359C917.545 632.535 916.208 651.302 918.883 664.708C921.558 678.114 914.871 679.455 909.521 694.201C904.171 708.948 912.196 715.651 909.521 737.101C906.846 758.551 918.883 773.297 936.269 773.297C953.656 773.297 954.993 781.341 959.005 814.856C963.018 848.372 950.981 869.821 916.208 873.843C888.39 877.061 865.386 895.74 857.361 904.678Z" fill="#5A5DF6"/>
    <path d="M834.997 888.312C613.524 426.3 541.177 700.312 452.668 1047.27L551.636 987.638C717.67 631.3 697.443 835.628 739.759 917.925C739.759 917.925 851.834 923.435 834.997 888.312Z" fill="#1EF2FE"/>
    <path fill-rule="evenodd" clip-rule="evenodd" d="M-34.1634 45.4521C666.416 227.699 879.692 596.126 620.963 488.613C383.19 389.809 107.438 515.273 224.129 776.624C324.745 1001.97 144.587 1109.65 39.2597 1121.89L-124.994 1065.68C-3.12596 1002.07 83.838 886.619 83.838 783.617C83.838 718.078 52.9597 656.2 25.2509 600.673C-22.4286 505.126 -60.7237 428.385 83.838 384.16C300.617 317.841 333.817 240.909 -60.3899 170.139L-34.1634 45.4521Z" fill="#5A5DF6"/>
    <path fill-rule="evenodd" clip-rule="evenodd" d="M905.238 -124.994C604.553 127.616 460.329 268.344 890.379 220.269C1234.42 181.81 1287.21 314.088 1270.61 385.034L1353.64 192.299L1340.19 152.11C1328.83 187.316 1308.81 196.362 1275.29 146.846C1208.62 48.3545 1068.61 88.5556 942.395 124.795C886.592 140.817 833.487 156.066 790.61 158.21C650.756 165.202 839.121 -4.37028 1076.87 -4.37028C1176.95 -4.37028 1241.41 -11.7274 1282.5 -20.2477L1247.44 -124.994H905.238Z" fill="#FF2F63"/>
  </g>
  <defs>
    <linearGradient id="paint0_linear_407_35" x1="597" y1="0" x2="597" y2="895.063" gradientUnits="userSpaceOnUse">
      <stop stop-color="white"/>
      <stop offset="1" stop-color="#EDF1F7"/>
    </linearGradient>
    <linearGradient id="paint1_linear_407_35" x1="185.306" y1="1122.33" x2="173.943" y2="45.4526" gradientUnits="userSpaceOnUse">
      <stop stop-color="white"/>
      <stop offset="1" stop-color="#EDF1F7"/>
    </linearGradient>
  </defs>
</svg>
