<svg width="762" height="239" viewBox="0 0 762 239" fill="none"
  xmlns="http://www.w3.org/2000/svg">
  <path d="M505.492 121.737C514.871 128.435 534.967 98.9636 545.685 119.058C557.743 161.926 505.492 153.888 563.102 230.246C620.712 306.604 681.002 670.98 526.929 1118.41C372.856 1565.84 1417.87 1726.6 1265.14 971.054C1112.41 215.51 612.407 -7.78824 526.929 25.2848C445.905 56.6343 496.114 115.039 505.492 121.737Z" fill="#FFBD16"/>
  <path d="M405.361 358.678C318.429 -32.781 263.595 -48.8685 485.607 54.3595C465.545 86.5349 464.208 105.302 466.883 118.708C469.558 132.114 462.871 133.455 457.521 148.201C452.171 162.948 460.196 169.651 457.521 191.101C454.846 212.551 466.883 227.297 484.269 227.297C501.656 227.297 502.993 235.341 507.005 268.856C511.018 302.372 498.981 323.821 464.208 327.843C436.39 331.061 413.386 349.74 405.361 358.678Z" fill="#5A5DF6"/>
  <path d="M382.997 342.312C161.524 -119.7 89.177 154.312 0.668306 501.275L99.6365 441.638C265.67 85.3002 245.443 289.628 287.76 371.925C287.76 371.925 399.834 377.435 382.997 342.312Z" fill="#1EF2FE"/>
</svg>
