<svg width="200" height="200" viewBox="0 0 200 200" fill="none" xmlns="http://www.w3.org/2000/svg">
<rect x="1" y="1" width="198" height="198" rx="99" fill="#EDF1F7" stroke="#E2E9F5" stroke-width="2"/>
<path fill-rule="evenodd" clip-rule="evenodd" d="M55 164.939C34.453 150.674 21 126.908 21 100C21 56.3695 56.3695 21 100 21C143.63 21 179 56.3695 179 100C179 126.908 165.547 150.674 145 164.939V156C145 146.854 139.419 139.012 131.477 135.693L131.437 135.676C131.308 135.622 131.178 135.57 131.048 135.519L130.971 135.489L130.927 135.471C130.786 135.417 130.645 135.364 130.502 135.312L130.43 135.286C130.13 135.178 129.826 135.077 129.519 134.982C129.49 134.973 129.461 134.964 129.432 134.955C129.417 134.951 129.402 134.946 129.387 134.941C129.096 134.853 128.803 134.771 128.506 134.695C128.46 134.683 128.414 134.671 128.368 134.66C128.217 134.622 128.065 134.585 127.913 134.551L127.889 134.545C127.747 134.513 127.604 134.482 127.46 134.452C127.412 134.442 127.364 134.433 127.316 134.423C126.817 134.324 126.312 134.242 125.802 134.177L125.695 134.163C125.564 134.147 125.433 134.133 125.3 134.119L125.195 134.108C125.028 134.092 124.862 134.077 124.694 134.064L124.636 134.06C124.547 134.053 124.458 134.047 124.369 134.042C124.315 134.039 124.262 134.036 124.208 134.033C124.163 134.03 124.119 134.028 124.073 134.026C123.718 134.009 123.36 134 123 134C120.566 134 118.336 133.131 116.602 131.685L116.404 131.516C114.317 129.683 113 126.995 113 124V118.045L112.975 118.057C112.793 118.144 112.611 118.229 112.427 118.313L112.199 118.416L111.877 118.557C111.405 118.761 110.926 118.953 110.442 119.133C110.563 119.088 110.683 119.042 110.804 118.996L110.442 119.133C109.895 119.336 109.34 119.524 108.778 119.695C108.859 119.671 108.94 119.646 109.02 119.62L108.778 119.695C108.32 119.835 107.858 119.964 107.391 120.083L107.352 120.093C107.307 120.104 107.262 120.115 107.217 120.126C107.071 120.162 106.924 120.197 106.777 120.231L106.763 120.235C106.272 120.348 105.777 120.449 105.277 120.537L104.988 120.587C104.454 120.677 103.915 120.752 103.372 120.813C102.5 120.91 101.616 120.97 100.723 120.991L100.536 120.994L100 121L99.4231 120.995C98.9969 120.987 98.5729 120.97 98.1512 120.944C98.2682 120.951 98.3852 120.957 98.5023 120.963L98.1512 120.944C97.606 120.911 97.0648 120.863 96.5279 120.801C96.3487 120.781 96.17 120.758 95.9918 120.735L95.9797 120.733C95.3191 120.644 94.6653 120.535 94.019 120.404C93.7342 120.346 93.4508 120.284 93.169 120.219L93.1752 120.22C92.0424 119.957 90.9344 119.629 89.8549 119.241C89.934 119.27 90.0134 119.298 90.0931 119.326L89.8549 119.241C89.3455 119.058 88.8423 118.862 88.3461 118.652L88.3474 118.653C88.5054 118.72 88.6641 118.785 88.8234 118.849L88.3474 118.653C88.3458 118.652 88.3442 118.652 88.3426 118.651L88.1649 118.575L87.7665 118.401C87.7051 118.373 87.6438 118.345 87.5827 118.318L87.025 118.056L87 118.045V124L86.9962 124.28C86.9169 127.163 85.6178 129.741 83.5964 131.516L83.3985 131.685C81.6645 133.131 79.4338 134 77 134C76.6402 134 76.2824 134.009 75.9261 134.026C75.8814 134.028 75.8367 134.03 75.7926 134.033C75.6495 134.04 75.5067 134.049 75.3645 134.06L75.3054 134.064C75.1382 134.077 74.9716 134.092 74.8058 134.108L74.6994 134.119C74.5675 134.133 74.4359 134.147 74.3039 134.164L74.1988 134.177C73.6883 134.242 73.1832 134.324 72.6846 134.423C72.6362 134.433 72.5878 134.443 72.5392 134.453C72.3959 134.482 72.253 134.513 72.1104 134.545L72.0867 134.551C71.9345 134.585 71.783 134.622 71.6326 134.659C71.5898 134.67 71.5472 134.681 71.5041 134.692C71.2009 134.77 70.9002 134.854 70.6024 134.945L70.4801 134.982C70.1739 135.077 69.8705 135.178 69.5703 135.286L69.4971 135.313C69.3551 135.364 69.2138 135.417 69.0732 135.471L69.0283 135.489L68.9451 135.521C68.829 135.567 68.7135 135.614 68.5984 135.661L68.5024 135.701C60.5712 139.025 55 146.862 55 156V164.939ZM87.7665 118.401C87.899 118.46 88.0317 118.518 88.1649 118.575C88.224 118.601 88.2832 118.626 88.3426 118.651L88.3461 118.652C88.1518 118.57 87.9586 118.486 87.7665 118.401ZM111.877 118.557C111.985 118.511 112.092 118.464 112.199 118.416C112.275 118.382 112.351 118.348 112.427 118.313L112.431 118.311C112.248 118.395 112.063 118.477 111.877 118.557ZM185 100C185 146.944 146.944 185 100 185C53.0558 185 15 146.944 15 100C15 53.0558 53.0558 15 100 15C146.944 15 185 53.0558 185 100ZM115 57C123.284 57 130 63.7157 130 72V91L129.996 91.4819C129.825 102.384 123.837 111.874 115 116.986L115 124L115.004 124.249C115.135 128.552 118.665 132 123 132C127.071 132 130.905 133.013 134.264 134.802C142.615 128.406 148 118.332 148 107C148 98.4506 144.935 90.6172 139.843 84.5388C138.054 82.0689 137 79.0326 137 75.75C137 75.4985 137.006 75.2485 137.018 75H137V60C137 43.4315 123.568 30 107 30H93L92.5039 30.004C76.1642 30.2689 63 43.5972 63 60V75H62.9816L62.9954 75.3739L63 75.75C63 79.0326 61.9456 82.0689 60.1569 84.5387C55.0654 90.6171 52 98.4506 52 107C52 118.332 57.3852 128.406 65.7365 134.802C69.0953 133.013 72.9293 132 77 132C81.4183 132 85 128.418 85 124L85.0009 116.987C76.0334 111.8 70 102.105 70 91V72C70 63.7157 76.7157 57 85 57H115ZM127.819 94.2011C127.939 93.1506 128 92.0825 128 91V72C128 64.8203 122.18 59 115 59H85C77.8203 59 72 64.8203 72 72V91L72.0037 91.463C72.0187 92.3873 72.0785 93.3007 72.181 94.2011L72.2335 94.6326C72.4229 96.0951 72.7253 97.5221 73.1315 98.9051C73.1995 99.1366 73.2703 99.3668 73.3441 99.5955C73.5054 100.096 73.6804 100.591 73.8687 101.079C73.9457 101.278 74.025 101.477 74.1064 101.674C74.1858 101.866 74.2673 102.058 74.351 102.248L74.3734 102.299C74.458 102.491 74.5447 102.681 74.6335 102.871C74.782 103.187 74.9361 103.501 75.0959 103.811L75.1253 103.868C75.3525 104.306 75.5909 104.737 75.8402 105.162C75.8745 105.22 75.9089 105.278 75.9437 105.336C75.9802 105.398 76.017 105.459 76.0543 105.52C76.1694 105.71 76.2868 105.898 76.4066 106.085C76.4474 106.148 76.4884 106.212 76.5295 106.275C76.5654 106.33 76.6015 106.385 76.6381 106.44C76.6766 106.498 76.7154 106.556 76.7543 106.614C76.7939 106.673 76.8337 106.731 76.8734 106.79C76.9036 106.834 76.934 106.878 76.9647 106.922C77.1034 107.122 77.2446 107.321 77.3885 107.518C77.4207 107.562 77.4529 107.605 77.4852 107.649C77.5342 107.715 77.5835 107.781 77.6334 107.847C77.6656 107.89 77.6981 107.933 77.7304 107.975C77.8707 108.159 78.0132 108.341 78.1578 108.521C78.2915 108.687 78.4271 108.852 78.5645 109.015L78.6442 109.11C78.8893 109.399 79.1403 109.682 79.3972 109.961C79.6181 110.201 79.8432 110.437 80.0727 110.67C80.174 110.772 80.2762 110.874 80.3788 110.975L80.4611 111.056C80.5032 111.097 80.5455 111.138 80.5876 111.178C80.6216 111.211 80.6557 111.244 80.6898 111.276C80.7268 111.311 80.7639 111.346 80.8011 111.382L80.8796 111.455C80.9227 111.496 80.9659 111.536 81.0094 111.576C81.0389 111.603 81.0686 111.63 81.0984 111.658C81.129 111.686 81.1596 111.714 81.1896 111.741C81.2565 111.801 81.3236 111.862 81.3912 111.922C81.444 111.969 81.497 112.016 81.55 112.062C81.607 112.112 81.6641 112.162 81.7215 112.211C81.7809 112.263 81.8405 112.314 81.9002 112.364C81.9323 112.391 81.9645 112.419 81.9967 112.446C82.0195 112.465 82.0424 112.484 82.0654 112.503C82.1108 112.541 82.1564 112.579 82.2022 112.617C82.2654 112.669 82.3288 112.721 82.3923 112.772C82.5661 112.913 82.7417 113.052 82.9191 113.188C82.967 113.225 83.0151 113.262 83.0629 113.298C83.117 113.34 83.1713 113.381 83.2259 113.421C83.2904 113.47 83.3551 113.518 83.4203 113.566C83.4628 113.597 83.5054 113.628 83.5481 113.659C83.6279 113.717 83.708 113.775 83.788 113.832L83.8692 113.889C83.9426 113.941 84.0163 113.993 84.0902 114.044C84.2935 114.185 84.4987 114.323 84.7061 114.458L84.8051 114.522C84.8839 114.573 84.9629 114.624 85.0422 114.674C85.0915 114.705 85.1409 114.736 85.1905 114.767C85.2602 114.811 85.3302 114.854 85.4003 114.897C85.4246 114.912 85.449 114.927 85.4734 114.942C85.4931 114.954 85.5128 114.966 85.5325 114.978C85.6045 115.021 85.6768 115.064 85.749 115.107C85.8162 115.147 85.8836 115.186 85.9514 115.226C85.9962 115.252 86.0412 115.278 86.0861 115.304C86.1576 115.345 86.2294 115.385 86.3015 115.426C86.3624 115.46 86.4234 115.494 86.4842 115.528C86.5474 115.563 86.6107 115.597 86.6746 115.632C86.7612 115.679 86.8481 115.725 86.9349 115.771L87 115.806L87.2995 115.961C87.2074 115.914 87.1156 115.866 87.0241 115.818L87.0392 115.826C87.1275 115.872 87.2161 115.918 87.3049 115.963L87.2995 115.961C87.5538 116.09 87.8104 116.216 88.0693 116.338C88.1155 116.36 88.1618 116.382 88.2081 116.403C88.2611 116.428 88.3141 116.452 88.3671 116.477C88.419 116.5 88.471 116.524 88.5233 116.547C88.6217 116.592 88.7203 116.635 88.8195 116.679C88.8803 116.705 88.9413 116.731 89.002 116.757C89.0837 116.792 89.1658 116.827 89.248 116.861C89.3159 116.889 89.3839 116.917 89.4525 116.945C89.7472 117.065 90.0445 117.18 90.3447 117.291C90.4264 117.321 90.5083 117.35 90.5898 117.379C90.6244 117.392 90.6589 117.404 90.6937 117.416C90.7218 117.426 90.7501 117.436 90.7785 117.446C90.855 117.473 90.9316 117.499 91.0082 117.525C91.2671 117.613 91.5277 117.697 91.7903 117.777C91.8483 117.795 91.9064 117.813 91.9641 117.83C92.0778 117.864 92.1918 117.897 92.3063 117.93C92.353 117.943 92.3997 117.956 92.4465 117.969C92.469 117.976 92.4916 117.982 92.5142 117.988C92.6379 118.022 92.762 118.056 92.8862 118.088C92.9221 118.098 92.9579 118.107 92.9939 118.116C93.0089 118.12 93.024 118.124 93.0391 118.128C93.1654 118.16 93.2921 118.192 93.4198 118.222L93.5051 118.243C93.6362 118.274 93.7676 118.304 93.8993 118.333C93.9324 118.341 93.9656 118.348 93.9988 118.355C94.017 118.359 94.0352 118.363 94.0534 118.367C94.162 118.391 94.2709 118.414 94.3803 118.436C94.4048 118.441 94.4293 118.446 94.4538 118.451C94.484 118.457 94.5141 118.463 94.544 118.469C94.7084 118.501 94.8734 118.532 95.0385 118.562L95.1295 118.578C95.2551 118.6 95.381 118.621 95.5076 118.642C95.5828 118.654 95.6581 118.665 95.7333 118.677C95.8359 118.693 95.9387 118.708 96.0415 118.722C96.0965 118.73 96.1514 118.738 96.2065 118.745C96.3313 118.762 96.4563 118.778 96.5815 118.793L96.7097 118.809C96.8588 118.826 97.0083 118.842 97.158 118.858L97.2342 118.865C97.4078 118.882 97.5819 118.898 97.7564 118.911L97.8255 118.917C97.9202 118.924 98.0151 118.931 98.1101 118.937C98.1616 118.941 98.2131 118.944 98.2646 118.947C98.2832 118.948 98.3017 118.949 98.3202 118.95C98.3486 118.952 98.3771 118.954 98.4055 118.955C98.5578 118.964 98.7104 118.971 98.8631 118.977L98.8894 118.978C99.0548 118.985 99.2206 118.99 99.3861 118.993L99.4648 118.995C99.6428 118.998 99.8212 119 100 119C100.205 119 100.41 118.998 100.613 118.993C100.779 118.99 100.945 118.985 101.111 118.978L101.137 118.977C101.29 118.971 101.442 118.964 101.594 118.955C101.641 118.953 101.688 118.95 101.735 118.947C101.882 118.938 102.028 118.928 102.175 118.917L102.243 118.911C102.418 118.898 102.592 118.882 102.766 118.865L102.842 118.858C102.992 118.842 103.141 118.826 103.29 118.809L103.418 118.793C103.544 118.778 103.669 118.762 103.794 118.745C103.849 118.738 103.904 118.73 103.958 118.722C104.061 118.708 104.164 118.693 104.266 118.677C104.342 118.665 104.417 118.654 104.493 118.641C104.619 118.621 104.745 118.6 104.871 118.578L104.961 118.562C105.127 118.532 105.292 118.501 105.455 118.469C105.476 118.465 105.497 118.461 105.518 118.456C105.552 118.45 105.586 118.443 105.62 118.436C105.685 118.423 105.751 118.409 105.816 118.395C105.859 118.386 105.903 118.377 105.947 118.367C105.998 118.356 106.049 118.345 106.101 118.333C106.232 118.304 106.364 118.274 106.494 118.243L106.581 118.222C106.708 118.192 106.835 118.16 106.961 118.128C107.012 118.115 107.063 118.102 107.114 118.088C107.238 118.056 107.362 118.022 107.486 117.988C107.555 117.969 107.625 117.949 107.694 117.93C107.808 117.897 107.922 117.864 108.035 117.83C108.094 117.812 108.152 117.795 108.21 117.777C108.472 117.697 108.733 117.613 108.992 117.525C109.068 117.499 109.145 117.473 109.222 117.446C109.285 117.424 109.348 117.402 109.41 117.38C109.462 117.361 109.513 117.342 109.565 117.324C109.595 117.313 109.626 117.302 109.656 117.291C109.956 117.18 110.253 117.065 110.548 116.945C110.589 116.928 110.631 116.911 110.672 116.894C110.699 116.883 110.725 116.872 110.752 116.861C110.834 116.827 110.916 116.792 110.998 116.758C111.059 116.731 111.12 116.705 111.181 116.679C111.28 116.635 111.378 116.592 111.477 116.547C111.529 116.524 111.581 116.5 111.633 116.477C111.732 116.431 111.832 116.385 111.931 116.338C112.2 116.211 112.467 116.08 112.732 115.945C112.771 115.925 112.809 115.905 112.848 115.885C112.872 115.872 112.897 115.859 112.921 115.847L113 115.806L113.315 115.638C113.247 115.674 113.179 115.711 113.111 115.747L113.119 115.743C113.186 115.707 113.253 115.671 113.32 115.635L113.315 115.638C113.382 115.601 113.449 115.565 113.516 115.528C113.577 115.494 113.638 115.46 113.699 115.426C113.771 115.385 113.842 115.345 113.914 115.304C113.959 115.278 114.004 115.252 114.049 115.226C114.116 115.186 114.184 115.147 114.251 115.107C114.323 115.064 114.395 115.021 114.468 114.978C114.512 114.951 114.556 114.924 114.6 114.897C114.67 114.854 114.74 114.811 114.81 114.767C114.859 114.736 114.908 114.705 114.958 114.674C115.037 114.624 115.116 114.573 115.195 114.522L115.294 114.458C115.501 114.323 115.707 114.185 115.91 114.044C115.984 113.993 116.057 113.941 116.131 113.889L116.212 113.832C116.292 113.775 116.372 113.717 116.452 113.659C116.475 113.643 116.498 113.626 116.521 113.609C116.541 113.595 116.56 113.58 116.58 113.566C116.626 113.532 116.672 113.498 116.718 113.464C116.736 113.45 116.755 113.436 116.774 113.421C116.806 113.398 116.837 113.374 116.869 113.35C116.891 113.333 116.914 113.316 116.937 113.299C116.985 113.262 117.033 113.225 117.081 113.188C117.258 113.052 117.434 112.913 117.608 112.772C117.671 112.721 117.735 112.669 117.798 112.617C117.827 112.592 117.857 112.568 117.886 112.544C117.902 112.53 117.918 112.517 117.935 112.503C117.99 112.457 118.045 112.411 118.1 112.364C118.16 112.314 118.219 112.263 118.278 112.211C118.336 112.162 118.393 112.112 118.45 112.062C118.478 112.038 118.506 112.013 118.535 111.988C118.559 111.966 118.584 111.944 118.609 111.922C118.676 111.862 118.744 111.801 118.81 111.741C118.84 111.714 118.871 111.686 118.902 111.657C118.975 111.59 119.048 111.523 119.12 111.456L119.199 111.381C119.271 111.314 119.342 111.246 119.412 111.178C119.454 111.138 119.497 111.097 119.539 111.056L119.621 110.975C119.724 110.874 119.826 110.773 119.928 110.669C120.157 110.437 120.382 110.201 120.603 109.961C120.861 109.681 121.112 109.396 121.358 109.107L121.438 109.013C121.574 108.85 121.709 108.686 121.842 108.521C121.987 108.341 122.129 108.159 122.269 107.975C122.302 107.933 122.334 107.89 122.367 107.847C122.391 107.815 122.415 107.782 122.439 107.75C122.465 107.716 122.49 107.683 122.515 107.649C122.547 107.605 122.579 107.561 122.612 107.517C122.755 107.321 122.897 107.122 123.036 106.922C123.066 106.878 123.096 106.834 123.126 106.79C123.166 106.731 123.206 106.673 123.246 106.614C123.262 106.59 123.278 106.566 123.295 106.541C123.317 106.507 123.34 106.474 123.362 106.44C123.398 106.385 123.435 106.33 123.47 106.275C123.512 106.212 123.553 106.148 123.594 106.084C123.713 105.898 123.831 105.71 123.946 105.52C123.983 105.459 124.02 105.398 124.056 105.336C124.091 105.278 124.126 105.22 124.16 105.162C124.409 104.737 124.648 104.306 124.875 103.868L124.904 103.811C125.064 103.501 125.218 103.187 125.367 102.871C125.455 102.681 125.542 102.491 125.627 102.299L125.649 102.248C125.733 102.058 125.814 101.866 125.894 101.674C125.975 101.477 126.054 101.278 126.131 101.079C126.32 100.591 126.495 100.096 126.656 99.5957C126.73 99.3668 126.801 99.1366 126.869 98.9048C127.275 97.5221 127.577 96.0951 127.767 94.6326L127.819 94.2011ZM100 119L100.463 118.996L100.535 118.995L100 119Z" fill="#A6AFBD"/>
</svg>
