<svg width="128" height="42" viewBox="0 0 128 42" fill="none"
  xmlns="http://www.w3.org/2000/svg">
  <mask id="path-1-inside-1_143_243" fill="white">
    <path fill-rule="evenodd" clip-rule="evenodd" d="M17 0C7.61116 0 0 7.61116 0 17V37.0063C0 40.1 3.36155 42.0226 6.02808 40.4541L16.0612 34.5523C16.6759 34.1907 17.3761 34 18.0892 34H111C120.389 34 128 26.3888 128 17C128 7.61116 120.389 0 111 0H17Z"/>
  </mask>
  <path fill-rule="evenodd" clip-rule="evenodd" d="M17 0C7.61116 0 0 7.61116 0 17V37.0063C0 40.1 3.36155 42.0226 6.02808 40.4541L16.0612 34.5523C16.6759 34.1907 17.3761 34 18.0892 34H111C120.389 34 128 26.3888 128 17C128 7.61116 120.389 0 111 0H17Z" fill="white"/>
  <path d="M16.0612 34.5523L17.0752 36.2761L16.0612 34.5523ZM2 17C2 8.71573 8.71573 2 17 2V-2C6.50659 -2 -2 6.50659 -2 17H2ZM2 37.0063V17H-2V37.0063H2ZM15.0471 32.8284L5.01404 38.7302L7.04212 42.1779L17.0752 36.2761L15.0471 32.8284ZM111 32H18.0892V36H111V32ZM126 17C126 25.2843 119.284 32 111 32V36C121.493 36 130 27.4934 130 17H126ZM111 2C119.284 2 126 8.71573 126 17H130C130 6.50659 121.493 -2 111 -2V2ZM17 2H111V-2H17V2ZM17.0752 36.2761C17.3825 36.0953 17.7326 36 18.0892 36V32C17.0195 32 15.9692 32.286 15.0471 32.8284L17.0752 36.2761ZM-2 37.0063C-2 41.6468 3.04232 44.5308 7.04212 42.1779L5.01404 38.7302C3.68077 39.5145 2 38.5532 2 37.0063H-2Z" fill="#EDF1F7" mask="url(#path-1-inside-1_143_243)"/>
</svg>
