<svg width="211" height="156" viewBox="0 0 211 156" fill="none" xmlns="http://www.w3.org/2000/svg">
<path fill-rule="evenodd" clip-rule="evenodd" d="M137.25 0.595703C136.838 0.595703 136.444 0.759089 136.153 1.04992L129.644 7.55925C129.172 8.03124 129.055 8.75231 129.353 9.34935L131.934 14.5108C132.418 15.4779 131.788 16.6317 130.717 16.7817C121.979 18.0055 113.759 20.8476 106.371 24.9953C105.887 25.267 105.296 25.2671 104.812 24.9954C94.726 19.3327 83.0897 16.1035 70.6992 16.1035C32.1579 16.1035 0.914062 47.3474 0.914062 85.8887C0.914062 124.43 32.1579 155.674 70.6992 155.674C83.0897 155.674 94.7261 152.445 104.812 146.782C105.296 146.51 105.887 146.51 106.371 146.782C116.458 152.445 128.094 155.674 140.484 155.674C179.026 155.674 210.27 124.43 210.27 85.8887C210.27 50.6633 184.17 21.5336 150.255 16.7821C149.184 16.632 148.551 15.4779 149.035 14.5108L151.615 9.34935C151.914 8.75231 151.797 8.03124 151.325 7.55925L144.816 1.04992C144.525 0.759089 144.13 0.595703 143.719 0.595703H137.25ZM70.6992 143.268C78.2615 143.268 85.4821 141.805 92.0934 139.146C93.1375 138.727 93.3465 137.36 92.5292 136.587C79.086 123.866 70.6992 105.857 70.6992 85.8887C70.6992 65.9204 79.086 47.911 92.5292 35.1907C93.3465 34.4172 93.1375 33.0509 92.0934 32.631C85.4821 29.9727 78.2615 28.5098 70.6992 28.5098C39.0097 28.5098 13.3203 54.1992 13.3203 85.8887C13.3203 117.578 39.0097 143.268 70.6992 143.268ZM140.484 28.5098C132.922 28.5098 125.701 29.9727 119.09 32.631C118.046 33.0509 117.837 34.4172 118.654 35.1907C132.098 47.911 140.484 65.9204 140.484 85.8887C140.484 105.857 132.098 123.866 118.654 136.587C117.837 137.36 118.046 138.727 119.09 139.146C125.701 141.805 132.922 143.268 140.484 143.268C172.174 143.268 197.863 117.578 197.863 85.8887C197.863 54.1992 172.174 28.5098 140.484 28.5098ZM128.078 85.8887C128.078 67.7534 119.665 51.5832 106.528 41.0683C105.98 40.6298 105.203 40.6298 104.655 41.0683C91.5188 51.5832 83.1055 67.7534 83.1055 85.8887C83.1055 104.024 91.5188 120.194 104.655 130.709C105.203 131.148 105.98 131.148 106.528 130.709C119.665 120.194 128.078 104.024 128.078 85.8887Z" fill="url(#paint0_linear_391_48)"/>
<defs>
<linearGradient id="paint0_linear_391_48" x1="210.27" y1="78.1348" x2="0.914066" y2="78.1348" gradientUnits="userSpaceOnUse">
<stop stop-color="#BB9A67"/>
<stop offset="1" stop-color="#DDBD8C"/>
</linearGradient>
</defs>
</svg>
