<svg width="1194" height="896" viewBox="0 0 1194 896" fill="none"
  xmlns="http://www.w3.org/2000/svg">
  <path opacity="0.7" d="M621.037 488.614C879.766 596.126 666.49 227.699 -34.0894 45.4526L-240.373 1026.18L39.3338 1121.89C144.661 1109.65 324.819 1001.97 224.203 776.625C107.512 515.273 383.264 389.809 621.037 488.614Z" fill="url(#paint0_linear_406_12)"/>
  <path d="M957.492 667.737C966.871 674.435 986.967 644.964 997.685 665.058C1009.74 707.926 957.492 699.888 1015.1 776.246C1072.71 852.604 1133 1216.98 978.929 1664.41C824.856 2111.84 1869.87 2272.6 1717.14 1517.05C1564.41 761.51 1064.41 538.212 978.929 571.285C897.905 602.634 948.114 661.039 957.492 667.737Z" fill="#FFBD16"/>
  <path d="M857.361 904.678C770.429 513.219 715.595 497.131 937.607 600.359C917.545 632.535 916.208 651.302 918.883 664.708C921.558 678.114 914.871 679.455 909.521 694.201C904.171 708.948 912.196 715.651 909.521 737.101C906.846 758.551 918.883 773.297 936.269 773.297C953.656 773.297 954.993 781.341 959.005 814.856C963.018 848.372 950.981 869.821 916.208 873.843C888.39 877.061 865.386 895.74 857.361 904.678Z" fill="#5A5DF6"/>
  <path d="M834.997 888.312C613.524 426.3 541.177 700.312 452.668 1047.27L551.636 987.638C717.67 631.3 697.443 835.628 739.759 917.925C739.759 917.925 851.834 923.435 834.997 888.312Z" fill="#1EF2FE"/>
  <path fill-rule="evenodd" clip-rule="evenodd" d="M905.238 -124.994C604.553 127.616 460.329 268.344 890.379 220.269C1234.42 181.81 1287.21 314.088 1270.61 385.034L1353.64 192.299L1340.19 152.11C1328.83 187.316 1308.81 196.362 1275.29 146.846C1208.62 48.3544 1068.61 88.5555 942.396 124.795C886.593 140.817 833.487 156.066 790.61 158.209C650.756 165.202 839.122 -4.37042 1076.87 -4.37042C1176.95 -4.37042 1241.41 -11.7275 1282.5 -20.2478L1247.44 -124.994H905.238Z" fill="#FF2F63"/>
  <defs>
    <linearGradient id="paint0_linear_406_12" x1="185.306" y1="1122.33" x2="173.943" y2="45.4526" gradientUnits="userSpaceOnUse">
      <stop stop-color="white"/>
      <stop offset="1" stop-color="#EDF1F7"/>
    </linearGradient>
  </defs>
</svg>
