<svg width="200" height="75" viewBox="0 0 200 75" fill="none" xmlns="http://www.w3.org/2000/svg">
<path d="M71.0343 42.2721C72.0843 42.2721 72.9876 42.4082 73.7442 42.6805C74.5009 42.9527 75.1494 43.2955 75.6898 43.7089C76.2303 44.1223 76.6703 44.5709 77.01 45.0549C77.2818 45.4421 77.514 45.8099 77.7067 46.1583L77.7894 46.3138C77.8229 46.3767 77.8884 46.416 77.9598 46.416C78.0663 46.416 78.1527 46.3298 78.1527 46.2234V43.5358C78.1527 43.0049 78.5835 42.5746 79.115 42.5746H82.7028C83.2343 42.5746 83.6651 43.0049 83.6651 43.5358V66.1828C83.6651 67.665 83.3846 68.9581 82.8236 70.0621C82.2626 71.1661 81.4879 72.0836 80.4997 72.8146C79.5115 73.5456 78.338 74.0926 76.9791 74.4555C75.6203 74.8185 74.138 75 72.5321 75C71.0189 75 69.6704 74.8462 68.4866 74.5387C67.3027 74.2312 66.2785 73.8128 65.4138 73.2834C64.5491 72.7541 63.8388 72.134 63.2829 71.4232C62.7965 70.8013 62.4244 70.1388 62.1666 69.4357C62.1111 69.2728 62.208 69.0976 62.3756 69.0578L66.3608 68.1119C66.7927 68.0094 67.2338 68.2196 67.4864 68.5844C67.5758 68.7137 67.6725 68.8432 67.7763 68.9732C68.0542 69.321 68.4119 69.6336 68.8494 69.9108C69.2869 70.1881 69.8145 70.415 70.4321 70.5914C71.0498 70.7679 71.7807 70.8561 72.6248 70.8561C73.4174 70.8561 74.1509 70.7653 74.8251 70.5839C75.4994 70.4024 76.081 70.1175 76.57 69.7294C77.0589 69.3412 77.4398 68.8421 77.7126 68.2321C77.9513 67.6984 78.0856 67.0701 78.1154 66.3472L78.1218 66.0316V61.8027C78.1218 61.7076 78.0446 61.6306 77.9494 61.6306C77.8846 61.6306 77.8255 61.6669 77.7951 61.7241C77.5854 62.1185 77.3159 62.5259 76.9869 62.9463C76.6317 63.4001 76.1814 63.8134 75.6358 64.1865C75.0902 64.5595 74.4391 64.8671 73.6825 65.109C72.9259 65.351 72.038 65.472 71.0189 65.472C69.6498 65.472 68.3708 65.2351 67.1818 64.7612C65.9928 64.2873 64.9583 63.579 64.0781 62.6363C63.198 61.6936 62.5057 60.5114 62.0013 59.0898C61.4969 57.6681 61.2447 56.0096 61.2447 54.1141C61.2447 52.2085 61.4969 50.5196 62.0013 49.0476C62.5057 47.5755 63.198 46.3379 64.0781 45.3347C64.9583 44.3315 65.9954 43.5703 67.1895 43.051C68.3836 42.5317 69.6652 42.2721 71.0343 42.2721ZM47.9086 42.2721C48.6601 42.2721 49.4218 42.3276 50.1939 42.4385C50.9659 42.5494 51.7071 42.7284 52.4174 42.9754C53.1277 43.2224 53.7942 43.5501 54.417 43.9584C55.0398 44.3668 55.5828 44.8659 56.0461 45.4557C56.5093 46.0455 56.8747 46.7387 57.1424 47.5352C57.3766 48.2322 57.5083 49.014 57.5376 49.8808L57.5438 50.2575V64.8435C57.5438 65.3744 57.113 65.8047 56.5815 65.8047H53.1327C52.6012 65.8047 52.1703 65.3744 52.1703 64.8435V62.7292C52.1703 62.6654 52.1185 62.6136 52.0546 62.6136C52.0118 62.6136 51.9726 62.6373 51.9521 62.6748C51.6996 63.1367 51.3786 63.5801 50.9891 64.005C50.5825 64.4486 50.091 64.8393 49.5145 65.1771C48.938 65.5149 48.2766 65.7821 47.5303 65.9787C46.784 66.1753 45.9476 66.2736 45.0211 66.2736C43.8888 66.2736 42.8388 66.1249 41.8712 65.8274C40.9035 65.53 40.0646 65.0864 39.3543 64.4965C38.644 63.9067 38.0881 63.1757 37.6866 62.3036C37.2852 61.4314 37.0844 60.4257 37.0844 59.2864C37.0844 58.4092 37.2002 57.6379 37.4319 56.9724C37.6635 56.307 37.9852 55.7273 38.3969 55.2332C38.8087 54.7392 39.2977 54.3182 39.8638 53.9704C40.43 53.6225 41.0451 53.3327 41.709 53.1008C42.373 52.8689 43.0781 52.6849 43.8245 52.5487C44.5708 52.4126 45.3248 52.3042 46.0866 52.2236C47.1366 52.1127 48.0321 52.0169 48.7733 51.9362C49.5145 51.8556 50.1193 51.7472 50.5876 51.6111C51.056 51.475 51.4009 51.2935 51.6222 51.0666C51.8119 50.8722 51.9203 50.6166 51.9474 50.2999L51.9542 50.1365V50.0458C51.9542 48.8963 51.6119 48.0116 50.9273 47.3915C50.2428 46.7715 49.2468 46.4614 47.9395 46.4614C47.2601 46.4614 46.6502 46.5396 46.1097 46.6958C45.5693 46.8521 45.0983 47.0664 44.6969 47.3386C44.2954 47.6108 43.9609 47.9259 43.6932 48.2838C43.4791 48.5702 43.3045 48.8678 43.1694 49.1767C43.1143 49.3141 42.9725 49.3962 42.8258 49.3758L38.9591 48.838C38.3778 48.7571 37.9994 48.1769 38.23 47.6378C38.5022 47.0013 38.841 46.4201 39.2462 45.8943C39.8638 45.0927 40.6076 44.4247 41.4774 43.8904C42.3473 43.356 43.3252 42.9527 44.4112 42.6805C45.4972 42.4082 46.663 42.2721 47.9086 42.2721ZM109.133 42.2721C110.584 42.2721 111.912 42.4713 113.117 42.8695C114.321 43.2678 115.369 43.8299 116.259 44.5558C117.149 45.2818 117.86 46.1589 118.39 47.1874C118.867 48.1129 119.167 49.1324 119.29 50.2458C119.308 50.447 119.15 50.6205 118.947 50.6205H114.784C114.319 50.6205 113.931 50.2843 113.781 49.8447C113.687 49.5697 113.571 49.3065 113.433 49.0551C113.171 48.5762 112.839 48.1628 112.437 47.815C112.036 47.4671 111.565 47.1924 111.024 46.9907C110.484 46.7891 109.879 46.6883 109.21 46.6883C108.345 46.6883 107.56 46.8597 106.855 47.2025C106.15 47.5453 105.548 48.0393 105.049 48.6846C104.549 49.3299 104.161 50.1163 103.883 51.0439C103.605 51.9715 103.466 53.0201 103.466 54.1897C103.466 55.3794 103.602 56.4431 103.875 57.3808C104.148 58.3185 104.534 59.115 105.033 59.7704C105.533 60.4257 106.135 60.9273 106.84 61.2752C107.545 61.623 108.335 61.7969 109.21 61.7969C109.828 61.7969 110.399 61.7087 110.924 61.5323C111.449 61.3558 111.92 61.1012 112.337 60.7685C112.754 60.4358 113.101 60.0249 113.379 59.5359C113.611 59.1284 113.789 58.6737 113.913 58.1716C113.953 57.9923 114.112 57.8647 114.296 57.8647H118.278C118.841 57.8647 119.289 58.3471 119.185 58.9C119.028 59.7353 118.768 60.5195 118.405 61.2525C117.896 62.2809 117.203 63.1656 116.328 63.9067C115.453 64.6478 114.414 65.225 113.209 65.6384C112.005 66.0518 110.656 66.2585 109.164 66.2585C107.393 66.2585 105.805 65.9635 104.4 65.3737C102.995 64.7839 101.804 63.9596 100.826 62.901C99.8477 61.8423 99.0988 60.5795 98.5789 59.1125C98.0591 57.6455 97.7992 56.0348 97.7992 54.2804C97.7992 52.5059 98.0642 50.8826 98.5944 49.4106C99.1245 47.9385 99.8811 46.6731 100.864 45.6145C101.847 44.5558 103.036 43.7341 104.431 43.1493C105.826 42.5645 107.393 42.2721 109.133 42.2721ZM150.377 42.2721C151.355 42.2721 152.299 42.373 153.21 42.5746C154.121 42.7763 154.978 43.0863 155.781 43.5047C156.584 43.9231 157.318 44.45 157.982 45.0852C158.646 45.7203 159.22 46.4715 159.703 47.3386C160.187 48.2057 160.56 49.1938 160.823 50.3029C161.053 51.2733 161.182 52.3402 161.21 53.5037L161.217 54.0082V54.7257C161.217 55.2566 160.786 55.6869 160.254 55.6869H145.667C145.132 55.6869 144.692 56.1247 144.753 56.656C144.823 57.2705 144.955 57.8373 145.15 58.3563C145.444 59.1377 145.855 59.7981 146.385 60.3375C146.916 60.8769 147.549 61.2878 148.285 61.5701C149.021 61.8524 149.842 61.9935 150.748 61.9935C151.962 61.9935 153.007 61.7415 153.882 61.2374C154.684 60.7752 155.279 60.1098 155.666 59.241C155.725 59.0976 155.872 59.0107 156.027 59.0277L159.895 59.4537C160.473 59.5173 160.867 60.077 160.656 60.6176C160.419 61.2232 160.112 61.7902 159.734 62.3187C159.147 63.1404 158.414 63.8437 157.534 64.4285C156.654 65.0133 155.635 65.4645 154.477 65.7821C153.318 66.0996 152.05 66.2585 150.67 66.2585C148.879 66.2585 147.273 65.9787 145.853 65.4191C144.432 64.8595 143.225 64.0605 142.232 63.022C141.238 61.9835 140.477 60.7307 139.947 59.2637C139.416 57.7967 139.151 56.1507 139.151 54.3258C139.151 52.5311 139.416 50.8952 139.947 49.4181C140.477 47.941 141.233 46.6731 142.216 45.6145C143.199 44.5558 144.381 43.7341 145.76 43.1493C147.139 42.5645 148.678 42.2721 150.377 42.2721ZM174.182 42.2721C175.572 42.2721 176.815 42.4234 177.911 42.7258C179.007 43.0283 179.954 43.4593 180.752 44.0189C181.55 44.5785 182.196 45.254 182.69 46.0455C183.122 46.7381 183.441 47.5059 183.644 48.3489C183.687 48.5442 183.551 48.7334 183.352 48.7547L179.448 49.1719C178.976 49.2222 178.549 48.9144 178.327 48.4965C178.267 48.3835 178.2 48.2723 178.127 48.1628C177.896 47.815 177.602 47.5075 177.247 47.2403C176.892 46.9731 176.467 46.7589 175.973 46.5975C175.479 46.4362 174.908 46.3556 174.259 46.3556C173.673 46.3556 173.13 46.4211 172.63 46.5522C172.131 46.6832 171.699 46.8647 171.333 47.0966C170.968 47.3285 170.682 47.6083 170.476 47.936C170.27 48.2637 170.167 48.6241 170.167 49.0173C170.157 49.6929 170.412 50.2449 170.932 50.6734C171.408 51.0662 172.172 51.3891 173.224 51.6421L173.518 51.7094L177.564 52.5563C179.808 53.0302 181.478 53.7838 182.574 54.8173C183.671 55.8508 184.224 57.1943 184.234 58.8478C184.234 59.9468 183.985 60.9525 183.485 61.865C182.986 62.7775 182.289 63.5589 181.393 64.2092C180.497 64.8595 179.429 65.3636 178.189 65.7216C176.949 66.0795 175.587 66.2585 174.105 66.2585C172.653 66.2585 171.338 66.1047 170.16 65.7972C168.981 65.4897 167.959 65.0435 167.095 64.4587C166.23 63.8739 165.53 63.1631 164.995 62.3263C164.519 61.5824 164.185 60.7469 163.994 59.8198C163.959 59.6307 164.094 59.4523 164.286 59.4342L168.537 59.0332C169.019 58.9877 169.447 59.3139 169.639 59.7577C169.924 60.4167 170.361 60.9401 170.947 61.3281C171.755 61.8625 172.803 62.1297 174.089 62.1297C174.759 62.1297 175.363 62.0591 175.904 61.9179C176.444 61.7768 176.907 61.5827 177.293 61.3357C177.679 61.0886 177.978 60.7937 178.189 60.4509C178.4 60.1081 178.506 59.7401 178.506 59.3469C178.506 58.6814 178.246 58.1319 177.726 57.6984C177.253 57.3043 176.545 56.9934 175.6 56.766L175.309 56.7002L171.264 55.8684C168.989 55.4046 167.306 54.6207 166.214 53.5167C165.123 52.4126 164.583 51.0137 164.593 49.3198C164.593 48.241 164.825 47.268 165.288 46.4009C165.751 45.5338 166.402 44.7953 167.241 44.1853C168.08 43.5753 169.089 43.1039 170.268 42.7712C171.446 42.4385 172.751 42.2721 174.182 42.2721ZM194.091 37.009C194.623 37.009 195.053 37.4394 195.053 37.9702V41.6134C195.053 42.1443 195.484 42.5746 196.016 42.5746H198.77C199.301 42.5746 199.732 43.0049 199.732 43.5358V45.8481C199.732 46.3789 199.301 46.8093 198.77 46.8093H196.016C195.484 46.8093 195.053 47.2396 195.053 47.7705V58.8176C195.053 59.3721 195.12 59.8233 195.254 60.1711C195.388 60.519 195.568 60.7912 195.795 60.9878C196.021 61.1844 196.289 61.3205 196.598 61.3962C196.906 61.4718 197.236 61.5096 197.586 61.5096C197.936 61.5096 198.257 61.4844 198.551 61.434C198.786 61.3936 198.976 61.3565 199.122 61.3227C199.177 61.3091 199.233 61.3437 199.245 61.3993L199.977 64.7282C200.084 65.2105 199.807 65.6997 199.326 65.8139C199.011 65.8886 198.694 65.9486 198.373 65.9938C197.766 66.0795 197.153 66.1223 196.536 66.1223C195.527 66.1223 194.59 65.9887 193.725 65.7216C192.861 65.4544 192.112 65.0536 191.479 64.5192C190.846 63.9848 190.349 63.3169 189.989 62.5153C189.668 61.8028 189.495 60.9887 189.467 60.0731L189.464 59.725V47.7705C189.464 47.2396 189.033 46.8093 188.501 46.8093H187.06C186.528 46.8093 186.098 46.3789 186.098 45.8481V43.5358C186.098 43.0049 186.528 42.5746 187.06 42.5746H188.501C189.033 42.5746 189.464 42.1443 189.464 41.6134V37.9702C189.464 37.4394 189.895 37.009 190.426 37.009H194.091ZM6.64708 26.1393L6.54664 26.232C6.48224 26.2894 6.42001 26.3475 6.36002 26.4061L6.1868 26.5835L6.02738 26.7637L5.88216 26.9464L5.75152 27.1312C5.64884 27.2859 5.56176 27.4424 5.4913 27.5997L5.41481 27.7887C4.98171 28.9873 5.53262 30.2059 7.51716 31.0005L7.84249 31.1223C7.89872 31.142 7.95596 31.1614 8.01421 31.1805L8.37602 31.2911C8.87488 31.4333 9.43991 31.554 10.0753 31.6493L10.5651 31.7159L11.0817 31.7725L11.6254 31.8188C11.997 31.8462 12.3871 31.8663 12.796 31.8788L13.4236 31.8917L14.2486 31.8911L15.1192 31.8711C15.4767 31.8591 15.8454 31.8423 16.2254 31.8205L17.0007 31.77L17.8066 31.7056L18.6437 31.6271L19.0741 31.5823L20.1846 31.4542L21.3455 31.3021C21.6873 31.2514 22.0211 31.2207 22.3544 31.1756L23.3416 31.0487L24.3034 30.9386C33.3208 29.973 38.9095 31.2836 41.0694 34.8704C42.4021 37.0837 41.4858 38.8607 39.9759 40.0716L39.6952 40.2855L39.4037 40.4868L39.2545 40.5826L38.9586 40.76L38.8086 40.8441L38.5059 41.0028C38.3538 41.0791 38.2009 41.1505 38.0485 41.2172L37.7444 41.344L37.4434 41.4577L37.2946 41.5096L37.002 41.6035C36.9057 41.6325 36.8108 41.6593 36.7176 41.6838L36.3766 41.7651L36.0556 41.8248C35.8492 41.8574 35.6587 41.8753 35.4895 41.8782L35.297 41.8744C34.6313 41.8339 34.419 41.4992 35.114 40.8347L35.2145 40.742C35.2789 40.6846 35.3411 40.6265 35.4011 40.5679L35.5743 40.3905C35.713 40.2415 35.8373 40.0894 35.9461 39.9354L36.0693 39.7498C36.1079 39.6876 36.1439 39.6252 36.1774 39.5626L36.2698 39.3743C36.8616 38.0533 36.2802 36.6792 33.9186 35.8517L33.5691 35.7372C33.3679 35.6757 33.1687 35.8293 33.1687 36.0394L33.1674 64.8436C33.1674 65.3744 32.7366 65.8047 32.2051 65.8047H28.6327C28.1012 65.8047 27.6704 65.3744 27.6704 64.8435V44.7011C27.6704 44.6042 27.5917 44.5256 27.4947 44.5256C27.4235 44.5256 27.3593 44.5685 27.3322 44.6342L18.8828 65.1189C18.7343 65.479 18.3829 65.714 17.993 65.714H15.1749C14.7847 65.714 14.4332 65.4787 14.2848 65.1183L5.83515 44.5889C5.80807 44.5232 5.7439 44.4802 5.67268 44.4802C5.57566 44.4802 5.49702 44.5588 5.49702 44.6557V64.8435C5.49702 65.3744 5.06617 65.8047 4.53469 65.8047H0.962329C0.430849 65.8047 0 65.3744 0 64.8435V30.0623C0 30.0496 0.0110229 30.0398 0.0235837 30.0413C0.03623 30.0428 0.0472889 30.0327 0.0472548 30.0199C0.0421833 28.1311 1.70055 26.7144 3.40755 25.8965L3.71265 25.7568L4.01674 25.63C4.11771 25.5899 4.21817 25.552 4.31777 25.5163L4.61371 25.4158C4.71127 25.3845 4.80765 25.3554 4.90249 25.3286L5.18208 25.2551L5.45044 25.1952C5.53779 25.1775 5.62292 25.1622 5.70551 25.1492L5.94525 25.1172L6.05873 25.1065L6.27164 25.0958C7.08377 25.082 7.40528 25.4144 6.64708 26.1393ZM93.0742 42.5746C93.6057 42.5746 94.0365 43.0049 94.0365 43.5358V64.8435C94.0365 65.3744 93.6057 65.8047 93.0742 65.8047H89.4092C88.8777 65.8047 88.4469 65.3744 88.4469 64.8435V43.5358C88.4469 43.0049 88.8777 42.5746 89.4092 42.5746H93.0742ZM140.952 34.8312C141.484 34.8312 141.915 35.2616 141.915 35.7924V38.5735C141.915 39.1044 141.484 39.5347 140.952 39.5347H133.103C132.571 39.5347 132.141 39.9651 132.141 40.4959V64.8435C132.141 65.3744 131.71 65.8047 131.178 65.8047H127.421C126.889 65.8047 126.458 65.3744 126.458 64.8435V40.4959C126.458 39.9651 126.027 39.5347 125.496 39.5347H117.646C117.115 39.5347 116.684 39.1044 116.684 38.5735V35.7924C116.684 35.2616 117.115 34.8312 117.646 34.8312H140.952ZM51.9696 55.7233C51.9696 55.318 51.4559 55.0143 51.0663 55.1273C50.6494 55.2483 50.1887 55.3542 49.6843 55.4449C49.1799 55.5357 48.673 55.6163 48.1634 55.6869C47.6538 55.7575 47.2138 55.818 46.8432 55.8684C46.2152 55.9592 45.6362 56.0827 45.1061 56.2389C44.5759 56.3952 44.1153 56.607 43.7241 56.8741C43.3329 57.1413 43.0267 57.464 42.8053 57.8421C42.584 58.2202 42.4734 58.6714 42.4734 59.1956C42.4734 59.6998 42.5712 60.1409 42.7667 60.519C42.9623 60.8971 43.2377 61.2147 43.5928 61.4718C43.948 61.7289 44.37 61.923 44.859 62.054C45.348 62.1851 45.8858 62.2507 46.4726 62.2507C47.3167 62.2507 48.0759 62.1221 48.7502 61.865C49.4244 61.6079 50.0009 61.2626 50.4796 60.829C50.9582 60.3955 51.3262 59.8888 51.5836 59.3091C51.8042 58.8121 51.9302 58.2911 51.9617 57.7461L51.9696 57.4715V55.7233ZM72.5784 46.7639C71.652 46.7639 70.8362 46.9479 70.131 47.3159C69.4259 47.6839 68.8366 48.1931 68.363 48.8434C67.8895 49.4937 67.5344 50.265 67.2976 51.1574C67.0608 52.0497 66.9425 53.0251 66.9425 54.0838C66.9425 55.1526 67.0634 56.123 67.3053 56.9951C67.5472 57.8673 67.905 58.6134 68.3785 59.2335C68.852 59.8535 69.4388 60.3324 70.1388 60.6702C70.8388 61.008 71.652 61.1769 72.5784 61.1769C73.474 61.1769 74.2667 61.0155 74.9564 60.6929C75.6461 60.3703 76.2277 59.9039 76.7012 59.2939C77.1747 58.684 77.535 57.9404 77.7821 57.0632C78.0291 56.186 78.1527 55.1929 78.1527 54.0838C78.1527 52.9848 78.0317 51.9841 77.7898 51.0817C77.5479 50.1793 77.1902 49.408 76.7166 48.7678C76.2431 48.1276 75.6589 47.6335 74.9641 47.2857C74.2692 46.9378 73.474 46.7639 72.5784 46.7639ZM25.9862 35.2391C26.0079 35.1873 25.9681 35.1306 25.912 35.1334L24.9571 35.1901L23.9545 35.2684C23.6807 35.2922 23.4016 35.3183 23.1174 35.3469L22.2488 35.4401L21.3484 35.5483C21.0428 35.5869 20.7356 35.6109 20.4193 35.6547L19.9098 35.7287L18.91 35.864C16.9356 36.1177 15.1132 36.2706 13.4427 36.3225L12.6202 36.3401C11.4057 36.3539 10.2767 36.3109 9.23308 36.2112C8.47568 36.1389 7.87425 36.899 8.1676 37.6003L16.327 57.1042C16.3702 57.2076 16.4715 57.2749 16.5837 57.2749C16.6959 57.2749 16.7972 57.2076 16.8404 57.1041L25.9862 35.2391ZM150.454 46.537C149.62 46.537 148.861 46.6832 148.177 46.9756C147.492 47.268 146.9 47.6612 146.401 48.1553C145.902 48.6493 145.505 49.2265 145.212 49.887C144.96 50.453 144.802 51.0506 144.735 51.6796C144.722 51.8505 144.857 51.9967 145.029 51.9967H154.884C155.42 51.9967 155.862 51.5562 155.777 51.0271C155.71 50.6026 155.6 50.1974 155.449 49.8113C155.187 49.1408 154.819 48.5636 154.345 48.0797C153.872 47.5957 153.306 47.2176 152.647 46.9454C151.988 46.6731 151.257 46.537 150.454 46.537ZM91.2571 33.334C91.6998 33.334 92.1167 33.4121 92.5079 33.5684C92.899 33.7247 93.2413 33.9364 93.5347 34.2036C93.8281 34.4708 94.0597 34.7859 94.2295 35.1488C94.3994 35.5118 94.4843 35.9 94.4843 36.3134C94.4843 36.7167 94.3994 37.0998 94.2295 37.4628C94.0597 37.8257 93.8281 38.1408 93.5347 38.408C93.2413 38.6752 92.899 38.8869 92.5079 39.0432C92.1167 39.1995 91.6998 39.2776 91.2571 39.2776C90.8145 39.2776 90.395 39.1995 89.9987 39.0432C89.6024 38.8869 89.2575 38.6752 88.9641 38.408C88.6708 38.1408 88.4391 37.8257 88.2693 37.4628C88.0994 37.0998 88.0145 36.7167 88.0145 36.3134C88.0145 35.9 88.0994 35.5118 88.2693 35.1488C88.4391 34.7859 88.6708 34.4708 88.9641 34.2036C89.2575 33.9364 89.6024 33.7247 89.9987 33.5684C90.395 33.4121 90.8145 33.334 91.2571 33.334ZM25.0463 1.17244L25.9312 1.4562L26.8623 1.76812L27.8409 2.10747L28.8686 2.47352L29.9467 2.86554L31.0767 3.28281L33.396 4.15284L34.9971 4.76609L35.9951 5.15652L36.9385 5.53361L37.8283 5.89854L38.6652 6.2525C38.9355 6.36879 39.197 6.48344 39.4501 6.59667L40.1839 6.93223C46.2056 9.75129 46.7739 11.766 44.2147 16.2483L43.8993 16.7872L43.5559 17.35C43.4964 17.4459 43.4357 17.5428 43.374 17.6408L42.9901 18.2418L42.5804 18.8697L41.919 19.8647L39.3436 23.6889L38.4706 25.004L37.8656 25.9274L37.243 26.8895L36.6038 27.8916C36.4053 28.2052 36.027 28.3514 35.6641 28.2722C32.5254 27.5868 28.6331 27.5247 24.014 28.0194L23.0315 28.1317L20.9403 28.3976L19.8477 28.5404L18.7657 28.6651L18.3726 28.7059L17.5547 28.7826L16.7886 28.8434L16.0552 28.8909C15.7219 28.91 15.376 28.9258 15.0395 28.9371L14.1775 28.9563L13.4443 28.9561L12.8713 28.9438C12.5346 28.9334 12.1852 28.9154 11.852 28.8909L11.3412 28.8472L10.8939 28.7974L10.4778 28.7398C10.2796 28.71 10.146 28.5243 10.1744 28.3261L10.1995 28.1514L10.5402 25.9347L10.7822 24.3192L11.1178 22.0072L11.4248 19.8265L12.1398 14.6345L12.3027 13.4743L12.5409 11.8342L12.6977 10.8067L12.8545 9.83095L13.0128 8.9063L13.1739 8.032C14.7232 -0.0368905 16.8549 -1.38729 25.0463 1.17244ZM31.0748 15.1327C30.8722 14.3724 29.8908 14.164 29.3961 14.7763L28.1174 16.3586C27.9866 16.5204 27.8068 16.6355 27.605 16.6866L25.6502 17.1815C24.8764 17.3775 24.6641 18.375 25.2913 18.8684L26.8755 20.1147C27.0391 20.2434 27.1564 20.4216 27.21 20.6225L27.7338 22.5875C27.9364 23.3478 28.9178 23.5561 29.4126 22.9439L30.6912 21.3616C30.822 21.1998 31.0018 21.0847 31.2037 21.0336L33.1582 20.5389C33.9321 20.3431 34.1445 19.3455 33.5174 18.8521L31.9331 17.6055C31.7695 17.4768 31.6522 17.2986 31.5986 17.0977L31.0748 15.1327Z" fill="#162447"/>
</svg>
