<svg width="32" height="32" viewBox="0 0 32 32" fill="none" xmlns="http://www.w3.org/2000/svg">
<path d="M16 5.5C15.2329 4.47726 14.2172 3.66757 13.0492 3.14782C11.8812 2.62806 10.5997 2.4155 9.32646 2.53031C8.0532 2.64512 6.83042 3.08349 5.77424 3.8038C4.71805 4.52411 3.86353 5.50244 3.2918 6.6459C2.72007 7.78936 2.45012 9.05998 2.50758 10.3371C2.56504 11.6142 2.94801 12.8555 3.62012 13.943C4.29223 15.0305 5.23116 15.9281 6.34777 16.5507C7.46437 17.1732 8.72158 17.5 10 17.5" stroke="#A6AFBD" stroke-width="4" stroke-linecap="round" stroke-linejoin="round"/>
<path d="M22 17.5C23.2784 17.5 24.5356 17.1732 25.6522 16.5507C26.7688 15.9281 27.7078 15.0305 28.3799 13.943C29.052 12.8555 29.435 11.6142 29.4924 10.3371C29.5499 9.05998 29.2799 7.78936 28.7082 6.6459C28.1365 5.50244 27.2819 4.52411 26.2258 3.8038C25.1696 3.08349 23.9468 2.64512 22.6735 2.53031C21.4003 2.4155 20.1188 2.62806 18.9508 3.14782C17.7828 3.66757 16.7671 4.47726 16 5.5" stroke="#A6AFBD" stroke-width="4" stroke-linecap="round" stroke-linejoin="round"/>
<path d="M16 29.5V5.5" stroke="#A6AFBD" stroke-width="4" stroke-linecap="round" stroke-linejoin="round"/>
</svg>
