<svg width="27" height="30" viewBox="0 0 27 30" fill="none" xmlns="http://www.w3.org/2000/svg">
<path d="M2 2C3.19347 2 4.33807 2.47411 5.18198 3.31802C6.02589 4.16193 6.5 5.30653 6.5 6.5V20" stroke="#A6AFBD" stroke-width="4" stroke-linecap="round" stroke-linejoin="round"/>
<path d="M6.5 6.5C6.5 5.30653 6.97411 4.16193 7.81802 3.31802C8.66193 2.47411 9.80653 2 11 2C12.1935 2 13.3381 2.47411 14.182 3.31802C15.0259 4.16193 15.5 5.30653 15.5 6.5V23C15.5 24.1935 15.0259 25.3381 14.182 26.182C13.3381 27.0259 12.1935 27.5 11 27.5" stroke="#A6AFBD" stroke-width="4" stroke-linecap="round" stroke-linejoin="round"/>
<path d="M20 26C22.4853 26 24.5 23.9853 24.5 21.5C24.5 19.0147 22.4853 17 20 17C17.5147 17 15.5 19.0147 15.5 21.5C15.5 23.9853 17.5147 26 20 26Z" stroke="#A6AFBD" stroke-width="4" stroke-linecap="round" stroke-linejoin="round"/>
</svg>
