<svg width="30" height="30" viewBox="0 0 30 30" fill="none" xmlns="http://www.w3.org/2000/svg">
<path d="M2.5 2C3.29565 2 4.05871 2.31607 4.62132 2.87868C5.18393 3.44129 5.5 4.20435 5.5 5V18.5" stroke="#A6AFBD" stroke-width="4" stroke-linecap="round" stroke-linejoin="round"/>
<path d="M5.5 5C5.5 4.20435 5.81607 3.44129 6.37868 2.87868C6.94129 2.31607 7.70435 2 8.5 2C9.29565 2 10.0587 2.31607 10.6213 2.87868C11.1839 3.44129 11.5 4.20435 11.5 5V18.5" stroke="#A6AFBD" stroke-width="4" stroke-linecap="round" stroke-linejoin="round"/>
<path d="M11.5 5C11.5 4.20435 11.8161 3.44129 12.3787 2.87868C12.9413 2.31607 13.7044 2 14.5 2C15.2956 2 16.0587 2.31607 16.6213 2.87868C17.1839 3.44129 17.5 4.20435 17.5 5V20C17.5 21.9891 18.6062 23.8968 20.5754 25.3033C22.5445 26.7098 25.2152 27.5 28 27.5" stroke="#A6AFBD" stroke-width="4" stroke-linecap="round" stroke-linejoin="round"/>
<path d="M16 27.5C18.7848 27.5 21.4555 26.7098 23.4246 25.3033C25.3938 23.8968 26.5 21.9891 26.5 20V17C26.5 15.8065 26.0259 14.6619 25.182 13.818C24.3381 12.9741 23.1935 12.5 22 12.5C20.8065 12.5 19.6619 12.9741 18.818 13.818C17.9741 14.6619 17.5 15.8065 17.5 17" stroke="#A6AFBD" stroke-width="4" stroke-linecap="round" stroke-linejoin="round"/>
</svg>
